<svg width="19" height="19" viewBox="0 0 19 19" fill="none" xmlns="http://www.w3.org/2000/svg">
<path d="M0 2.03571C0 1.49581 0.214476 0.978017 0.596247 0.596247C0.978017 0.214476 1.49581 0 2.03571 0H6.10714C6.64705 0 7.16484 0.214476 7.54661 0.596247C7.92838 0.978017 8.14286 1.49581 8.14286 2.03571V6.10714C8.14286 6.64705 7.92838 7.16484 7.54661 7.54661C7.16484 7.92838 6.64705 8.14286 6.10714 8.14286H2.03571C1.49581 8.14286 0.978017 7.92838 0.596247 7.54661C0.214476 7.16484 0 6.64705 0 6.10714V2.03571ZM10.8571 2.03571C10.8571 1.49581 11.0716 0.978017 11.4534 0.596247C11.8352 0.214476 12.353 0 12.8929 0H16.9643C17.5042 0 18.022 0.214476 18.4038 0.596247C18.7855 0.978017 19 1.49581 19 2.03571V6.10714C19 6.64705 18.7855 7.16484 18.4038 7.54661C18.022 7.92838 17.5042 8.14286 16.9643 8.14286H12.8929C12.353 8.14286 11.8352 7.92838 11.4534 7.54661C11.0716 7.16484 10.8571 6.64705 10.8571 6.10714V2.03571ZM0 12.8929C0 12.353 0.214476 11.8352 0.596247 11.4534C0.978017 11.0716 1.49581 10.8571 2.03571 10.8571H6.10714C6.64705 10.8571 7.16484 11.0716 7.54661 11.4534C7.92838 11.8352 8.14286 12.353 8.14286 12.8929V16.9643C8.14286 17.5042 7.92838 18.022 7.54661 18.4038C7.16484 18.7855 6.64705 19 6.10714 19H2.03571C1.49581 19 0.978017 18.7855 0.596247 18.4038C0.214476 18.022 0 17.5042 0 16.9643V12.8929ZM10.8571 12.8929C10.8571 12.353 11.0716 11.8352 11.4534 11.4534C11.8352 11.0716 12.353 10.8571 12.8929 10.8571H16.9643C17.5042 10.8571 18.022 11.0716 18.4038 11.4534C18.7855 11.8352 19 12.353 19 12.8929V16.9643C19 17.5042 18.7855 18.022 18.4038 18.4038C18.022 18.7855 17.5042 19 16.9643 19H12.8929C12.353 19 11.8352 18.7855 11.4534 18.4038C11.0716 18.022 10.8571 17.5042 10.8571 16.9643V12.8929Z" fill="#757575"/>
</svg>
